<svg width="20" height="21" viewBox="0 0 20 21" fill="none" xmlns="http://www.w3.org/2000/svg">
<path d="M10 0.603271C7.28625 0.603271 6.945 0.615553 5.87875 0.662222C4.8125 0.711347 4.08625 0.875917 3.45 1.11909C2.78262 1.36572 2.17811 1.75259 1.67875 2.25265C1.1701 2.74353 0.776384 3.33739 0.525 3.99292C0.2775 4.61681 0.10875 5.33158 0.06 6.37549C0.0125 7.42554 0 7.7596 0 10.4296C0 13.0971 0.0125 13.4311 0.06 14.4787C0.11 15.5251 0.2775 16.2386 0.525 16.8637C0.78125 17.5097 1.1225 18.0575 1.67875 18.604C2.23375 19.1505 2.79125 19.487 3.44875 19.7376C4.08625 19.9807 4.81125 20.1465 5.87625 20.1944C6.94375 20.2411 7.28375 20.2534 10 20.2534C12.7163 20.2534 13.055 20.2411 14.1225 20.1944C15.1863 20.1453 15.915 19.9807 16.5513 19.7376C17.2182 19.4908 17.8223 19.1039 18.3212 18.604C18.8775 18.0575 19.2188 17.5097 19.475 16.8637C19.7213 16.2386 19.89 15.5251 19.94 14.4787C19.9875 13.4311 20 13.0971 20 10.4283C20 7.7596 19.9875 7.42554 19.94 6.37672C19.89 5.33158 19.7213 4.61681 19.475 3.99292C19.2237 3.33737 18.8299 2.74351 18.3212 2.25265C17.822 1.7524 17.2175 1.36551 16.55 1.11909C15.9125 0.875917 15.185 0.710119 14.1213 0.662222C13.0538 0.615553 12.715 0.603271 9.9975 0.603271H10.0013H10ZM9.10375 2.37424H10.0013C12.6713 2.37424 12.9875 2.38283 14.0413 2.43073C15.0162 2.47372 15.5462 2.6346 15.8988 2.76847C16.365 2.94655 16.6987 3.16024 17.0487 3.50412C17.3988 3.848 17.615 4.17468 17.7963 4.634C17.9338 4.97911 18.0963 5.49983 18.14 6.45778C18.1887 7.49309 18.1987 7.80381 18.1987 10.4259C18.1987 13.0479 18.1887 13.3599 18.14 14.3952C18.0963 15.3531 17.9325 15.8726 17.7963 16.219C17.6359 16.6456 17.38 17.0313 17.0475 17.3476C16.6975 17.6915 16.365 17.904 15.8975 18.082C15.5475 18.2171 15.0175 18.3768 14.0413 18.421C12.9875 18.4677 12.6713 18.4787 10.0013 18.4787C7.33125 18.4787 7.01375 18.4677 5.96 18.421C4.985 18.3768 4.45625 18.2171 4.10375 18.082C3.66937 17.9247 3.27641 17.6738 2.95375 17.3476C2.62094 17.0308 2.36465 16.6447 2.20375 16.2177C2.0675 15.8726 1.90375 15.3519 1.86 14.394C1.8125 13.3586 1.8025 13.0479 1.8025 10.4234C1.8025 7.80012 1.8125 7.49063 1.86 6.45532C1.905 5.49738 2.0675 4.97665 2.205 4.63032C2.38625 4.17222 2.60375 3.84431 2.95375 3.50043C3.30375 3.15656 3.63625 2.94409 4.10375 2.76601C4.45625 2.63092 4.985 2.47126 5.96 2.42705C6.8825 2.38529 7.24 2.37301 9.10375 2.37178V2.37424ZM15.3387 4.0052C15.1812 4.0052 15.0251 4.03569 14.8795 4.09494C14.7339 4.15419 14.6017 4.24104 14.4902 4.35052C14.3788 4.46 14.2904 4.58997 14.2301 4.73302C14.1698 4.87606 14.1388 5.02937 14.1388 5.1842C14.1388 5.33903 14.1698 5.49235 14.2301 5.63539C14.2904 5.77843 14.3788 5.90841 14.4902 6.01789C14.6017 6.12737 14.7339 6.21421 14.8795 6.27346C15.0251 6.33271 15.1812 6.36321 15.3387 6.36321C15.657 6.36321 15.9622 6.23899 16.1873 6.01789C16.4123 5.79678 16.5387 5.4969 16.5387 5.1842C16.5387 4.87151 16.4123 4.57163 16.1873 4.35052C15.9622 4.12941 15.657 4.0052 15.3387 4.0052ZM10.0013 5.38316C9.32009 5.37272 8.64362 5.49552 8.01122 5.7444C7.37883 5.99329 6.80314 6.3633 6.31769 6.83288C5.83223 7.30246 5.4467 7.86223 5.18355 8.4796C4.9204 9.09697 4.78488 9.75961 4.78488 10.4289C4.78488 11.0983 4.9204 11.7609 5.18355 12.3783C5.4467 12.9957 5.83223 13.5554 6.31769 14.025C6.80314 14.4946 7.37883 14.8646 8.01122 15.1135C8.64362 15.3624 9.32009 15.4852 10.0013 15.4747C11.3494 15.4541 12.6353 14.9134 13.5812 13.9693C14.5272 13.0253 15.0574 11.7537 15.0574 10.4289C15.0574 9.10419 14.5272 7.83256 13.5812 6.88854C12.6353 5.94452 11.3494 5.40383 10.0013 5.38316ZM10.0013 7.1529C10.8854 7.1529 11.7334 7.49799 12.3586 8.11225C12.9838 8.72651 13.335 9.55963 13.335 10.4283C13.335 11.297 12.9838 12.1301 12.3586 12.7444C11.7334 13.3587 10.8854 13.7038 10.0013 13.7038C9.11709 13.7038 8.26913 13.3587 7.64393 12.7444C7.01873 12.1301 6.6675 11.297 6.6675 10.4283C6.6675 9.55963 7.01873 8.72651 7.64393 8.11225C8.26913 7.49799 9.11709 7.1529 10.0013 7.1529Z" fill="#474744"/>
</svg>