<svg width="20" height="14" viewBox="0 0 20 14" fill="none" xmlns="http://www.w3.org/2000/svg">
<path d="M10.0644 0.30304H10.1756C11.2032 0.306536 16.4098 0.341504 17.8136 0.693513C18.238 0.800943 18.6247 1.01035 18.9351 1.30079C19.2455 1.59124 19.4688 1.95256 19.5825 2.34865C19.7087 2.79158 19.7975 3.37787 19.8575 3.98281L19.87 4.10403L19.8975 4.40708L19.9075 4.52831C19.9888 5.59366 19.9988 6.5914 20 6.80937V6.89679C19.9988 7.12291 19.9875 8.18826 19.8975 9.2979L19.8875 9.42029L19.8762 9.54151C19.8137 10.2082 19.7212 10.8703 19.5825 11.3575C19.4691 11.7537 19.246 12.1152 18.9355 12.4057C18.6251 12.6962 18.2382 12.9055 17.8136 13.0126C16.3635 13.3763 10.8519 13.4019 10.0881 13.4031H9.91062C9.52435 13.4031 7.92675 13.3961 6.25164 13.3425L6.03913 13.3355L5.93037 13.3308L5.71661 13.3227L5.50284 13.3145C4.11526 13.2574 2.79392 13.1653 2.18514 13.0115C1.76072 12.9045 1.37392 12.6953 1.06347 12.4051C0.753027 12.1148 0.529842 11.7535 0.416276 11.3575C0.277517 10.8714 0.185012 10.2082 0.122508 9.54151L0.112507 9.41912L0.102506 9.2979C0.0408121 8.5081 0.00662525 7.71663 0 6.92476L0 6.78139C0.00250016 6.53079 0.0125008 5.66476 0.080005 4.70897L0.0887556 4.58892L0.0925058 4.52831L0.102506 4.40708L0.130008 4.10403L0.142509 3.98281C0.202513 3.37787 0.291268 2.79041 0.417526 2.34865C0.5309 1.95241 0.754 1.59091 1.06446 1.30041C1.37492 1.00992 1.76182 0.800621 2.18639 0.693513C2.79517 0.541986 4.11651 0.448738 5.50409 0.390459L5.71661 0.3823L5.93162 0.375306L6.03913 0.37181L6.25289 0.36365C7.4426 0.327954 8.6328 0.308137 9.82311 0.304205H10.0644V0.30304ZM8.0005 4.04459V9.6604L13.1971 6.85366L8.0005 4.04459Z" fill="#474744"/>
</svg>